<svg id="Graphic_elements" data-name="Graphic elements" xmlns="http://www.w3.org/2000/svg" viewBox="0 0 1200 1200"><defs><style>.cls-1{fill:none;}.cls-2{fill:#1a1a1a;}.cls-3{fill:#fff;}.cls-4{fill:#fefefe;}.cls-5{fill:#fcfcfc;}.cls-6{fill:#040404;}.cls-7{fill:#010101;}.cls-8{fill:#050505;}.cls-9{fill:#fdfdfd;}</style></defs><path class="cls-1" d="M421.07,298.07c17.95,36.7,45.87,67.05,70.71,99.08,11.93,15,23,30.77,37.14,43.79h0c-14.15-13-25.21-28.81-37.14-43.79-24.84-32-52.76-62.38-70.71-99.08-49.27,33.81-96.67,70.25-142.52,108.54C324.4,368.32,371.8,331.88,421.07,298.07Z"/><path class="cls-1" d="M801.8,794.79a194.43,194.43,0,0,1,4.6-41.14A194.43,194.43,0,0,0,801.8,794.79Z"/><path class="cls-1" d="M725.51,743.93c15.56,11.74,30,25.78,39.12,43.13C755.53,769.71,741.07,755.67,725.51,743.93Z"/><path class="cls-1" d="M1096.33,269.53h0c0,.33.07.67.1,1C1096.4,270.2,1096.36,269.86,1096.33,269.53Z"/><path class="cls-1" d="M789.22,213c-12.66,8.8-20.28,21.84-26.07,35.8C768.94,234.79,776.56,221.75,789.22,213Z"/><path class="cls-1" d="M895.47,802.62c-24.89,13.76-54.38,11.53-81.53,7.93-.1-.95-.12-1.89-.19-2.84.07.95.09,1.9.19,2.85,27.15,3.59,56.63,5.83,81.53-7.94,14.78-8.72,30.2-21,33.65-38.8a32.52,32.52,0,0,0,.27-3.37,32.52,32.52,0,0,1-.27,3.37C925.67,781.57,910.25,793.89,895.47,802.62Z"/><path class="cls-1" d="M834.1,680.85c-15,21.6-22.12,47.41-27.7,72.8C812,728.26,819.1,702.45,834.1,680.85Z"/><path class="cls-1" d="M759.66,705.75c-11.51,12.74-24,24.66-36.47,36.4h0C735.65,730.41,748.15,718.49,759.66,705.75Z"/><path class="cls-1" d="M742.68,330.08c.94-1,1.79-2.08,2.66-3.14-.87,1.06-1.72,2.12-2.66,3.14a64.53,64.53,0,0,1-4.87,4.91A62.73,62.73,0,0,0,742.68,330.08Z"/><path class="cls-1" d="M792.72,229.92a47.94,47.94,0,0,0-4.64,4.82A47.94,47.94,0,0,1,792.72,229.92Z"/><path class="cls-1" d="M822.6,736.89a199,199,0,0,1,12.59-35.53A199,199,0,0,0,822.6,736.89Z"/><path class="cls-1" d="M799.12,225.11c1.08-.68,2.18-1.3,3.3-1.88C801.3,223.81,800.2,224.43,799.12,225.11Z"/><path class="cls-1" d="M1099,346.74c-2.63,20.51-2.53,41.48-7.73,61.57-10.12,32.4-26.83,62.58-46.47,90.13-41.95,50-106.35,75.62-169.92,83a346.49,346.49,0,0,1-54.67.62C778,577.93,735.81,566.55,699.53,544c-36.54-22-66.72-54.75-85.11-93.28a14.44,14.44,0,0,1-1.53-4.62,14.44,14.44,0,0,0,1.53,4.62C632.81,489.24,663,522,699.53,544c36.28,22.56,78.46,33.94,120.71,38.08-1.64.5-4.91,1.44-6.55,1.91,10.54.93,21.37,2,32.13,2.06-10.75,0-21.59-1.13-32.13-2.06,1.64-.47,4.91-1.41,6.55-1.91a346.49,346.49,0,0,0,54.67-.62h0c63.58-7.39,128-33.05,169.92-83,19.64-27.55,36.35-57.72,46.47-90.13,5.2-20.09,5.1-41.06,7.73-61.57.32,2.16,1,6.47,1.32,8.66h0c-.32-2.18-1-6.49-1.32-8.65.62-19.44,1.39-39-.64-58.39l3-.35h0l-3,.35C1100.42,307.74,1099.65,327.3,1099,346.74Z"/><path class="cls-1" d="M746.78,325.23c.23-.3.43-.62.66-.93C747.21,324.61,747,324.93,746.78,325.23Z"/><path class="cls-1" d="M466.12,554.35a92,92,0,0,1,37.45-18.76A92,92,0,0,0,466.12,554.35Z"/><path class="cls-1" d="M422.44,691.12c-.47-6.8-.7-13.61-.62-20.41C421.74,677.51,422,684.32,422.44,691.12Z"/><path class="cls-1" d="M450.15,627.62c31.84-20.73,68.34-35.43,106.49-38.13C518.48,592.19,482,606.89,450.15,627.62Z"/><path class="cls-1" d="M938.54,553.41a98.91,98.91,0,0,1-21.18,8.68c-14.65,4.34-29.16,10.68-44.68,10.56A185.29,185.29,0,0,0,843,570.47a185.29,185.29,0,0,1,29.64,2.18c-19.69,1.51-39.72,2.33-59.31-.1h0c-31.91-6.37-64.26-13.94-93.27-29.08-31-12.5-60.15-32-78.78-60.26C631,469.08,622.43,452,625.33,434c2.8-18.8,10-37.79,23.45-51.55h0c-13.49,13.76-20.65,32.75-23.45,51.55-2.9,18,5.68,35.08,16,49.22,18.62,28.21,47.8,47.75,78.77,60.25,29,15.15,61.37,22.71,93.28,29.08,19.59,2.43,39.63,1.62,59.31.1,15.52.13,30-6.22,44.68-10.56a99.12,99.12,0,0,0,21.18-8.68c16.7-9.23,35.36-16.35,48.32-30.94C973.9,537.05,955.24,544.18,938.54,553.41Z"/><path class="cls-1" d="M513.89,693.31c28.67-12,62.15-13.26,90.63,0C576,680.05,542.56,681.26,513.89,693.31Z"/><path class="cls-1" d="M430.53,742.78a60.73,60.73,0,0,1-2.87-11.12A60.73,60.73,0,0,0,430.53,742.78Z"/><path class="cls-1" d="M464.06,532.51c-29.51,19.07-47.71,51.89-55,85.66-8.95,41.26-6.45,84.38,2,125.52,10.69,38.15,43,64.54,74,86.66h0c-31-22.12-63.3-48.5-74-86.66-8.48-41.14-11-84.25-2-125.52,7.27-33.77,25.47-66.59,55-85.66A111.87,111.87,0,0,1,523.74,514,111.78,111.78,0,0,0,464.06,532.51Z"/><path class="cls-1" d="M433.49,749.79a74.28,74.28,0,0,1-3-7A74.28,74.28,0,0,0,433.49,749.79Z"/><path class="cls-1" d="M609.86,579.2a97.24,97.24,0,0,0-26-28.05,97.47,97.47,0,0,1,26,28c2.1,3.1,1.41,7,1.56,10.51-27.48-14.05-59.74-14.4-89.12-6.76-35.68,8.6-69.52,25.33-97.41,49.28h0c27.89-24,61.74-40.69,97.42-49.29,29.38-7.64,61.63-7.29,89.11,6.77C611.27,586.16,612,582.29,609.86,579.2Z"/><path class="cls-1" d="M651,734.47h0c-14.85,11.61-23.48,29-30.35,46.1-9.87,25.84-16.26,52.84-21.4,80-11.1-3.42-22.16-7.25-33.06-11.48,10.91,4.23,22,8.06,33.07,11.48,5.13-27.12,11.53-54.12,21.4-80C627.54,763.43,636.17,746.07,651,734.47Z"/><path class="cls-1" d="M638.71,769.4c4-8.26,8.48-16.91,15.23-22.94C647.18,752.49,642.75,761.14,638.71,769.4Z"/><path class="cls-1" d="M618.08,717.23a46.45,46.45,0,0,0,7.18,6.07,45.38,45.38,0,0,1-7.17-6.07c-2.88-2.87-5-6.47-8.18-9h0C613.1,710.76,615.21,714.36,618.08,717.23Z"/><path class="cls-1" d="M706.48,752.58c-12.94-6.82-27.26-13.35-42.23-11.94,15-1.41,29.29,5.12,42.23,11.94,20.33,9.16,35,27.4,44.75,47,3.75,8.53,7,18.72,2.76,27.7-4,8.06-12.57,12.35-17.61,19.66-7.56,10.56-19.19,17.43-31.59,20.73a131.59,131.59,0,0,1-35.47,4.21,131.66,131.66,0,0,0,35.48-4.21c12.39-3.3,24-10.17,31.59-20.73,5-7.31,13.56-11.6,17.6-19.66,4.26-9,1-19.17-2.75-27.7C741.49,780,726.82,761.74,706.48,752.58Z"/><path class="cls-1" d="M511.11,822.68c-.35-.21-.72-.4-1.07-.61C510.39,822.28,510.76,822.47,511.11,822.68Z"/><path class="cls-1" d="M208.93,467.65c-24.1,22.41-47.42,45.65-68.27,71.13-11.13,14.7-24,29.88-26.41,48.87h0c2.36-19,15.28-34.16,26.41-48.87C161.51,513.3,184.83,490.06,208.93,467.65Z"/><path class="cls-1" d="M547,446.19c-5.21,9.43-12.68,17.07-20.81,24C534.27,463.26,541.74,455.62,547,446.19Z"/><path class="cls-1" d="M566.9,338.76a318.62,318.62,0,0,1,.37-61.14A318.62,318.62,0,0,0,566.9,338.76Z"/><path class="cls-1" d="M990.51,258c-34.42-16.93-64.59-41.23-98.86-58.39h0c34.27,17.16,64.44,41.46,98.86,58.4,17.4,9.12,36.92,16,56.85,14,17.16-1.76,32.26-11.61,43.87-23.93h0c-11.61,12.32-26.71,22.17-43.87,23.92C1027.43,274,1007.91,267.1,990.51,258Z"/><path class="cls-1" d="M652.53,140.75c26.48-24.63,58.19-43,92.23-55C710.72,97.76,679,116.12,652.53,140.75Z"/><path class="cls-1" d="M803.4,184.86c-23.95,7.06-43.48,25.61-53.33,48.37-12,24.45-15.25,54-35.28,73.92-10.54,10.29-24.7,15.91-39,18.29-24.32,4.29-43.59,22.3-56.6,42.38a161.79,161.79,0,0,0-11.16,21,163,163,0,0,1,11.15-21c13-20.08,32.29-38.08,56.61-42.37,14.33-2.38,28.49-8,39-18.3,20-19.91,23.26-49.47,35.28-73.91,9.85-22.77,29.38-41.31,53.33-48.38,23.14-7.68,48-2.5,70.1,6h0C851.36,182.35,826.54,177.17,803.4,184.86Z"/><path class="cls-1" d="M622.59,195l1.07-.86Z"/><path class="cls-1" d="M988.46,520.8c8.82-9.31,19-17.35,27.31-27.1C1007.42,503.45,997.28,511.49,988.46,520.8Z"/><path class="cls-1" d="M717.31,206.55c8.63,18.1,4.1,40-8,55.34-13.81,17.84-36.38,29.56-59.11,28.47,22.73,1.09,45.3-10.63,59.11-28.47,12.13-15.37,16.66-37.24,8-55.34-5-12.35-17.38-18.37-28.61-23.8a30.63,30.63,0,0,0-3.32-2,30.5,30.5,0,0,1,3.31,2C699.94,188.18,712.31,194.2,717.31,206.55Z"/><path class="cls-1" d="M873.39,90.19a147.44,147.44,0,0,1,5.44,16.71,375.22,375.22,0,0,1,8.54,44.43,375.22,375.22,0,0,0-8.54-44.43A147.44,147.44,0,0,0,873.39,90.19Z"/><path class="cls-1" d="M599.64,412a176.57,176.57,0,0,1,7-19.89,175.87,175.87,0,0,0-7,19.89c-13.72-47.06-19.4-97-12-145.7C580.23,315,585.91,365,599.64,412Z"/><path class="cls-1" d="M571.41,417.75a150.69,150.69,0,0,1-19.49,6.87A150.69,150.69,0,0,0,571.41,417.75Z"/><path class="cls-1" d="M567.54,345.4q1.83,17.3,5.22,34.4Q569.39,362.72,567.54,345.4Z"/><path class="cls-1" d="M669.59,194.82c4.9,2,8.1,6.6,12.72,9.13,4.41,1.36,10.21-.22,13.21,4.22,6.77,6.91,7.41,17.35,5.85,26.4a48.62,48.62,0,0,1-17.29,27.14,48.57,48.57,0,0,0,17.29-27.14c1.56-9,.92-19.49-5.85-26.41-3-4.44-8.8-2.85-13.21-4.21-4.61-2.53-7.81-7.12-12.72-9.13a27.21,27.21,0,0,0-15.23.25A27.21,27.21,0,0,1,669.59,194.82Z"/><path class="cls-1" d="M575.53,392.74c.46,2,.92,3.91,1.4,5.87C576.45,396.65,576,394.7,575.53,392.74Z"/><path class="cls-1" d="M460.84,274.62c31-6.21,62.6-6,94.06-6C523.44,268.64,491.8,268.41,460.84,274.62Z"/><path class="cls-1" d="M437.58,290.19c1.81,5.15,5.31,9.47,8.41,13.93C442.89,299.66,439.39,295.34,437.58,290.19Z"/><path class="cls-1" d="M608.52,478.8C646.13,542.7,715,584,787.16,596.43a127.79,127.79,0,0,1-21.3,71.7c-16.41,24.82-39.32,44.19-60.2,65h0c20.88-20.85,43.79-40.22,60.21-65a127.87,127.87,0,0,0,21.3-71.7C715,584,646.13,542.7,608.52,478.8c-2.46-6-8.73-7.81-13.39-11.46a107.86,107.86,0,0,0-8.83-36.27h0a108.1,108.1,0,0,1,8.83,36.27C599.79,471,606.06,472.8,608.52,478.8Z"/><path class="cls-1" d="M558.13,938.4c-16.49-13.12-36.89-20-57-25.37a237.29,237.29,0,0,0-46.1-7.69,236.56,236.56,0,0,1,46.1,7.7c20.11,5.38,40.51,12.24,57,25.36a25.94,25.94,0,0,1,.18,2.78A25.94,25.94,0,0,0,558.13,938.4Z"/><path class="cls-1" d="M474.82,1004.35a181.47,181.47,0,0,0,32.83,27.2h0A181.47,181.47,0,0,1,474.82,1004.35Z"/><path class="cls-1" d="M426.37,913.64c0-.83.06-1.68.12-2.51C426.43,912,426.39,912.8,426.37,913.64Z"/><path class="cls-1" d="M251.69,957.27c1.86-20.83,3.74-41.66,5.36-62.51C255.43,915.61,253.55,936.44,251.69,957.27Z"/><path class="cls-1" d="M399.57,1026.92h0a201.83,201.83,0,0,0,19.71-53.84A201.83,201.83,0,0,1,399.57,1026.92Z"/><path class="cls-1" d="M378.89,939.09c8.33,5.21,18,8.66,25.24,15.38C396.86,947.75,387.22,944.3,378.89,939.09Z"/><path class="cls-1" d="M274.38,1008.89a133.69,133.69,0,0,0,36.71,29.24A133.69,133.69,0,0,1,274.38,1008.89Z"/><path class="cls-1" d="M484.09,898c-18.62-3.1-37.61-5.28-56.46-3.17h0c18.85-2.11,37.84.07,56.46,3.17,26.83,5,53.59,12.67,77.24,26.58.08-.82.18-1.64.27-2.46-.09.82-.19,1.64-.27,2.46C537.68,910.68,510.92,903,484.09,898Z"/><path class="cls-1" d="M552.21,445.36A76,76,0,0,0,565.84,441,76,76,0,0,1,552.21,445.36Z"/><path class="cls-1" d="M673.91,721.5c-6.21-2.09-12.41-4.18-18.56-6.39C661.5,717.32,667.7,719.41,673.91,721.5Z"/><path class="cls-1" d="M266.44,760c1.69-21.67,3.53-43.32,5.95-64.9C270,716.72,268.13,738.37,266.44,760Z"/><path class="cls-1" d="M567.78,869.82h0c-.1.94-.22,1.87-.32,2.81C567.56,871.69,567.68,870.76,567.78,869.82Z"/><path class="cls-1" d="M263.1,804.31c-.83,19.3-3.68,38.57-2.73,57.92h0C259.42,842.88,262.27,823.61,263.1,804.31Z"/><path class="cls-1" d="M427.51,870.93c-3.47-8.36-18-6.52-17.93,3-.77,22.3-1.43,44.61-3.57,66.83A408.29,408.29,0,0,0,257.37,884.1h0A408.47,408.47,0,0,1,406,940.78c2.14-22.22,2.8-44.53,3.57-66.82-.1-9.55,14.46-11.38,17.93-3,.18,2,.27,4,.31,6C427.78,874.9,427.69,872.92,427.51,870.93Z"/><path class="cls-1" d="M238.62,866.35c-.32,28.91-1.76,57.79-3,86.68h0c1.19-28.89,2.63-57.77,2.95-86.68-13-1.27-25.52,4.43-34.52,13.59C213.11,870.78,225.61,865.08,238.62,866.35Z"/><path class="cls-1" d="M165.28,1021.8c-.35-19,3.25-37.89,6.69-56.52C168.54,983.9,164.93,1002.75,165.28,1021.8Z"/><path class="cls-1" d="M195.34,968.39c2.16.29,4.32.56,6.49.83C199.66,969,197.5,968.68,195.34,968.39Z"/><path class="cls-1" d="M223.27,1062.37c-1.66-4.11-1.66-10.16-6.86-11.43-6.33-2.92-11.14,2.83-13.67,7.89-9.05-1.71-18.32-2.8-27.05-5.83-8.3-7.91-9.35-20.31-10.41-31.07h0c1.06,10.77,2.11,23.16,10.41,31.07,8.73,3,18,4.12,27.05,5.83,2.53-5.06,7.34-10.81,13.67-7.88,5.2,1.26,5.2,7.31,6.86,11.43,38.61,4.68,78.55,10.41,116.89.91h0C301.82,1072.79,261.88,1067.06,223.27,1062.37Z"/><path class="cls-1" d="M100.46,996.81c.62-8.46,3-16.63,9.82-22.28C103.42,980.18,101.08,988.35,100.46,996.81Z"/><path class="cls-1" d="M355.38,1053.9h0a152.79,152.79,0,0,1-22.74-6.14A152.79,152.79,0,0,0,355.38,1053.9Z"/><path class="cls-1" d="M160.37,1052c-12.12-27.74-5.38-58.76,0-87.25-16.92-.17-36.25-2-50.12,9.77,13.86-11.73,33.2-9.94,50.11-9.77-5.4,28.49-12.15,59.51,0,87.25-.35,5.71-4.24,12.62,2,16.74,12.89,4.34,26.55,6,39.79,9-2.25,15.35-5.6,32.18-17.26,43.32a49.79,49.79,0,0,1-25.13,9.86,49.86,49.86,0,0,0,25.14-9.86c11.65-11.14,15-28,17.26-43.32-13.24-3-26.91-4.61-39.8-9C156.13,1064.64,160,1057.72,160.37,1052Z"/><path class="cls-1" d="M332.64,1047.76a149.54,149.54,0,0,1-21.55-9.63A149.54,149.54,0,0,0,332.64,1047.76Z"/><path class="cls-2" d="M217.23,434.5c-32.92,29.79-65.21,60.53-93,95.22C109.9,548.93,93.58,569.93,95,595.3c1.26,30.87,24,54.27,43.09,76.29,14.23,16.24,26.83,34.52,45,46.74,9.07,6.35,21.42,8.88,31.66,3.75,15.45-7.46,26.93-20.63,39.33-32.09-9,52.15-12.67,105.08-14.24,157.92-22.56-2.13-44.08,10.17-57.17,28-14.86,20.2-25.69,45.2-23.11,70.73-20-1.44-42.85-3.15-59.21,10.64-15.85,14.16-18,37-18.28,57,1,33.5,6.18,67.89,21.87,97.89,8.58,16.16,21.55,32,40.1,36.57,18.42,4.07,38.16-1.89,52.93-13.14,15.48-13.64,20.73-35,23.11-54.65,34.2,4.94,69,9,103.52,4.54,13.54-1.69,27-5.38,38.83-12.4,11.78-7.34,19-19.56,27.35-30.25a344,344,0,0,0,65,12.89c26.09,1.81,54.58,1.32,76.79-14.38,21.4-14.5,31.39-39.74,37.94-63.74,8.8-33.25,12.44-67.59,16.41-101.69C621.51,886.14,659,892.44,696,888.1c20.28-2.67,42-9.91,54.3-27.3,4.89-7.44,13.44-11.43,18.15-19,4-5.65,4.88-12.69,6.35-19.26,27,4.58,54.2,10.09,81.75,9.2,22.58-.65,45.47-7.52,62.65-22.64,16.59-14.06,32.24-34.54,28.69-57.57-4.09-23.16-23-39.73-41.23-52.65-33.62-22.63-71.26-38.58-109-52.76A180.5,180.5,0,0,0,806.06,599c85.49,10.29,177.65-13.51,240.46-74.24,17.56-17.18,29.68-38.88,41.23-60.32,11.28-23,23.14-46.64,25.42-72.56,1.56-16.14,3.77-32.33,3.94-48.57a121.83,121.83,0,0,1-2.43-24.64,147.29,147.29,0,0,1,2.18-24.68c-1.36-55-24.3-107.06-55.24-151.67-4.49-5.28-4.09-13.26-9.47-17.83C1019,95,978.58,73.82,935.71,62.32a329.22,329.22,0,0,0-182.17,1.07c-46.22,13.26-89.73,37.71-123,72.71-30.42,31.17-49.64,71.76-59.06,114-33-.23-66.08.22-98.91,3.79-14.43,2-29.43,4.21-42.17,11.73-6.87,3.84-9.65,12.05-16.52,15.84-30.49,19.39-59.53,41-88.17,63C288.54,373.24,252.17,403,217.23,434.5ZM204.11,879.94c9-9.16,21.5-14.86,34.52-13.59-.32,28.91-1.76,57.79-2.95,86.68h0c-19,2.31-38.28-.39-56.95-4.29C175.05,923.37,186.46,897.76,204.11,879.94ZM184.87,1121a49.86,49.86,0,0,1-25.14,9.86,34.71,34.71,0,0,1-20.41-4.16c-15.47-9.69-22.62-27.52-27.75-44.23-7-22.89-9.35-46.82-11-70.6a118.06,118.06,0,0,1-.15-15.08c.62-8.46,3-16.63,9.82-22.28,13.87-11.73,33.2-9.94,50.12-9.77-5.41,28.49-12.15,59.51,0,87.25-.34,5.71-4.24,12.63,2,16.74,12.89,4.34,26.56,6,39.8,9C199.87,1093.05,196.52,1109.88,184.87,1121Zm155.29-57.73c-38.34,9.5-78.28,3.77-116.89-.91-1.66-4.12-1.66-10.17-6.86-11.43-6.33-2.93-11.14,2.82-13.67,7.88-9.05-1.71-18.32-2.8-27.05-5.83-8.3-7.91-9.35-20.3-10.41-31.07h0v-.13c-.35-19,3.26-37.9,6.69-56.52,2.91.34,5.81.71,8.72,1.1,4.88.65,9.76,1.34,14.65,2,2.16.29,4.32.56,6.49.83,13.34,1.67,26.72,2.79,40.16,1.59,8.34,34.71,34.82,62.56,66,78.6,10.21,5.8,21.65,8.85,32.21,13.88h0Zm17-10-1.81.65h0a152.79,152.79,0,0,1-22.74-6.14,149.54,149.54,0,0,1-21.55-9.63,133.69,133.69,0,0,1-36.71-29.24c-12.57-14.35-20.93-32.6-22.69-51.62,1.86-20.83,3.74-41.66,5.36-62.51,42.49,8.7,84.13,22.69,121.84,44.33,8.33,5.21,18,8.66,25.24,15.38C398.55,991,382.78,1026.4,357.19,1053.25Zm150.46-21.69c-35.9,6.52-72.38.07-108.08-4.64h0a201.83,201.83,0,0,0,19.71-53.84A285.15,285.15,0,0,0,424.59,939c15.42,22.54,31.13,45.71,50.23,65.38a181.47,181.47,0,0,0,32.83,27.2h0Zm47.83-71.14c-4.26,21-9.4,44-25.86,59.09-2.78,2.2-5.78,6.3-9.77,4.11-10.74-3.89-19.89-11.08-28.12-18.82-24.42-23.25-43.42-51.42-61.89-79.44-2.85-3.42-3.53-7.53-3.47-11.72,0-.84.06-1.68.12-2.51.12-1.68.32-3.36.5-5a158.38,158.38,0,0,1,28-.8,237.29,237.29,0,0,1,46.1,7.69c20.11,5.39,40.51,12.25,57,25.37a25.94,25.94,0,0,1,.18,2.78C558.41,947.64,556.41,954,555.48,960.42Zm12.3-90.6c-.1.94-.22,1.87-.32,2.81-1.8,16.51-4.15,33-5.86,49.5-.09.82-.19,1.64-.27,2.46C537.68,910.68,510.92,903,484.09,898c-18.62-3.1-37.61-5.28-56.46-3.17h0c-.09-6,.29-12,.19-17.94,0-2-.13-4-.31-6-3.47-8.35-18-6.52-17.93,3-.77,22.29-1.43,44.6-3.57,66.82A408.47,408.47,0,0,0,257.37,884.1h0c.69-7.34,2-14.58,3-21.87-.95-19.35,1.9-38.62,2.73-57.92,0-.31,0-.63,0-.95,1.09-14.44,2.16-28.88,3.29-43.32,1.69-21.67,3.53-43.32,5.95-64.9,16.82,35,43.07,64.76,74.07,87.9,40.12,30.67,86.68,52.26,135.2,65.82,17.19,4.57,34.77,8,52.62,8.29,11.4,3.42,22,9.17,33.5,12.67Zm-23-354.3a112.66,112.66,0,0,0-80.71,17c-29.5,19.07-47.7,51.89-55,85.66-8.95,41.27-6.45,84.38,2,125.52,10.69,38.16,43,64.54,74,86.66h0c-47.63-13.61-93.18-35.61-132.43-65.93-32.43-25.52-61.27-58.92-70.69-100,74.06-64.32,153.13-122.44,230.14-183.11,4.71-3.59,9.46-7.23,14-11.1,8.13-6.9,15.6-14.54,20.81-24q2.67-.29,5.26-.83A76,76,0,0,0,565.84,441c7-2.9,13.72-6.53,20.46-9.9h0a107.86,107.86,0,0,1,8.83,36.27c4.66,3.65,10.93,5.46,13.39,11.46C646.13,542.7,715,584,787.17,596.43a127.87,127.87,0,0,1-21.3,71.7c-16.42,24.82-39.33,44.19-60.21,65h0c-10.37-4.45-21.06-8.08-31.75-11.67-6.21-2.09-12.41-4.18-18.56-6.39-4.31-1.55-8.6-3.15-12.84-4.9-11.43-4.38-21-14.23-22.64-26.7-2.4-20.14.65-40.39,3-60.4,1.91-14.36,3.4-29,8.45-42.65C615.66,546.14,581.88,521.45,544.77,515.52Zm59.75,177.81c-28.48-13.28-62-12.07-90.63,0a121.28,121.28,0,0,0-12,5.82c-27.4,14.8-52.19,40.71-54,73.27-2.33-3-4.61-6.11-6.75-9.3q-1.62-2.39-3.11-4.85c-1.66-2.75-3.17-5.58-4.54-8.46a74.28,74.28,0,0,1-3-7,60.73,60.73,0,0,1-2.87-11.12,388.66,388.66,0,0,1-5.22-40.54c-.47-6.8-.7-13.61-.62-20.41s.46-13.6,1.21-20.38c7.6-9.1,17.45-16,27.12-22.71,31.84-20.73,68.33-35.43,106.49-38.13q3.27-.27,6.55-.31c15.31-.23,30.72,3.1,43.94,11C602.44,630.87,596.89,662.63,604.52,693.33ZM522.31,582.94c-35.68,8.6-69.53,25.34-97.42,49.29h0c4.37-21.85,12.12-43.88,25.67-61.67a95.39,95.39,0,0,1,15.57-16.21,92,92,0,0,1,37.45-18.76,95.19,95.19,0,0,1,45.39-.08,92.46,92.46,0,0,1,34.88,15.64,97.24,97.24,0,0,1,26,28.05c2.11,3.09,1.41,7,1.56,10.51C583.94,575.65,551.69,575.3,522.31,582.94ZM566.2,849a379.94,379.94,0,0,1-55.09-26.36c-.35-.21-.72-.4-1.07-.61a284.93,284.93,0,0,1-47-34.47c-6.2-12.52-3.29-27.85,3.4-39.63,10.88-19.35,29.13-33.46,49.2-42.53,2.87-1.3,5.78-2.49,8.7-3.58q3.35-1.23,6.77-2.27c16-4.81,33.13-6.21,49.47-2.39,10.24,2.38,19.48,7.48,29.3,11.08h0c3.2,2.48,5.3,6.08,8.18,9a45.38,45.38,0,0,0,7.17,6.07c7.7,5.32,16.81,8.54,25.75,11.16h0c-14.85,11.6-23.48,29-30.35,46.09-9.87,25.84-16.27,52.84-21.4,80C588.16,857.1,577.11,853.27,566.2,849ZM754,827.27c-4,8.06-12.57,12.35-17.6,19.66-7.57,10.56-19.2,17.43-31.59,20.73a131.66,131.66,0,0,1-35.48,4.21c-19.87-.2-39.84-4-59.07-8.47,6.17-30.35,13.34-60.75,26.06-89.12.79-1.59,1.59-3.23,2.4-4.88,4-8.26,8.47-16.91,15.23-22.94a30.45,30.45,0,0,1,9.35-5.78c.32,0,.63,0,1,0,15-1.41,29.29,5.12,42.23,11.94,20.34,9.16,35,27.4,44.76,47C755,808.1,758.25,818.29,754,827.27Zm150.93-106.8c11.81,10.19,24.9,23.4,24.47,40a32.52,32.52,0,0,1-.27,3.37c-3.45,17.75-18.87,30.08-33.65,38.8-24.9,13.77-54.38,11.53-81.53,7.94-.1-.95-.12-1.9-.19-2.85-1.65-21.23,2.23-42.41,6.89-63q.93-3.9,2-7.79a199,199,0,0,1,12.59-35.53,123.59,123.59,0,0,1,9.15-16.09C865.69,694.74,886.47,706.05,904.92,720.47ZM834.1,680.85c-15,21.6-22.12,47.41-27.7,72.8a194.43,194.43,0,0,0-4.6,41.14q-.06,6.91.34,13.83c-9.67-2.15-19.49-3.29-29.16-5.3-2.73-1.94-3.17-5.51-4.64-8.23-1.11-2.76-2.35-5.43-3.71-8-9.1-17.35-23.56-31.39-39.12-43.13-.77-.59-1.54-1.21-2.32-1.78h0c12.46-11.74,25-23.66,36.47-36.4s22-26.3,30.55-41.31l1.71-.92C806.08,669,820.17,674.73,834.1,680.85Zm262.23-411.32c0,.33.07.67.1,1,.56,5.94,1.16,11.9,2,17.82h0l3-.35h0c.6,22.42,2.73,45.18-1,67.4h0c-.33-2.19-1-6.5-1.32-8.66-2.63,20.51-2.53,41.48-7.73,61.57-10.12,32.41-26.83,62.58-46.47,90.13-41.95,50-106.34,75.62-169.92,83h0l2.58.35c-10.23,3.27-20.91,4.28-31.67,4.24s-21.59-1.13-32.13-2.06c1.64-.47,4.91-1.41,6.55-1.91C778,577.93,735.81,566.55,699.53,544c-36.54-22-66.72-54.75-85.11-93.28a14.44,14.44,0,0,1-1.53-4.62c-.86-5.14.68-10.65,1.58-15.72,6-28.36,18.79-56.7,41.28-75.75,15.55-13.73,38-11.13,55.34-21.37,23-11.46,35.33-35.7,42.92-59.09,2.85-8.33,5.66-17,9.14-25.41,5.79-14,13.41-27,26.07-35.8,18.5-14.16,43.74-17.11,65.61-9.85,55.54,17.14,97.47,61.35,152,80.76,18.87,7,40.19,9.5,59.56,2.93,11.08-3.57,20.73-10.32,29.95-17.26ZM1029.26,130c27.25,35.18,51.5,74.31,62,118.05h0c-11.61,12.32-26.71,22.17-43.87,23.93-19.93,2-39.45-4.89-56.85-14-34.42-16.94-64.59-41.24-98.86-58.4h0c-.82-16.11-2.14-32.24-4.28-48.25a375.22,375.22,0,0,0-8.54-44.43,147.44,147.44,0,0,0-5.44-16.71c-1.61-4.16-3.34-8.27-5.31-12.27q-2.28-4.64-4.87-9.11C922.79,72.58,982.67,91.87,1029.26,130ZM587.79,265.14c6.81-44.07,27.06-86.25,58.34-118.15q3.12-3.19,6.4-6.24c26.48-24.63,58.19-43,92.23-55A299.22,299.22,0,0,1,827,69.39c5.83.79,13.17,0,17.33,5,5.68,6.57,8.53,15,11.36,23.13,9.5,30.3,14.18,61.84,17.8,93.31h0c-22.14-8.5-47-13.68-70.1-6-23.95,7.07-43.48,25.61-53.33,48.38-12,24.44-15.25,54-35.28,73.91-10.54,10.29-24.7,15.92-39,18.3-24.32,4.29-43.59,22.29-56.61,42.37a163,163,0,0,0-11.15,21c-.47,1.08-.88,2.19-1.33,3.28a176.57,176.57,0,0,0-7,19.89c-13.73-47.05-19.41-97-12-145.7C587.69,265.92,587.73,265.53,587.79,265.14Zm-149,21.3c3.73-7.85,14.15-9.81,22.1-11.82,31-6.21,62.6-6,94.06-6,4.5,0,9,0,13.47-.06q-.61,4.55-1.1,9.1a318.62,318.62,0,0,0-.37,61.14c.19,2.21.41,4.43.64,6.64q1.83,17.3,5.22,34.4,1.29,6.49,2.77,12.94c.46,2,.92,3.91,1.4,5.87,1.21,4.92,2.47,9.82,3.84,14.69q-4.6,2.4-9.36,4.45a150.69,150.69,0,0,1-19.49,6.87q-5,1.38-10,2.46c-18.23-18.52-33.7-39.5-49.57-60q-6-7.71-11.83-15.54t-11.6-15.72c-7.68-10.52-15.27-21.11-22.88-31.67-3.1-4.46-6.6-8.78-8.41-13.93A14.3,14.3,0,0,1,438.74,286.44Zm-17.67,11.63c17.95,36.7,45.87,67.05,70.71,99.08,11.93,15,23,30.77,37.14,43.79h0c-14.28,15.72-31.73,28-48.32,41.09C411.42,535.83,341.23,588.4,274.7,645.5c-10.68,5.78-15.52,17.38-24.84,24.82-14.43,12.87-28.27,27.58-46.49,35-6.58,2.08-12-4.34-17.16-7.51a273.25,273.25,0,0,1-55.69-63.33c-8.53-14.16-16.64-29.83-16.27-46.79h0c2.36-19,15.28-34.17,26.41-48.87,20.85-25.48,44.17-48.72,68.27-71.13q12-11.2,24.29-22.17,22.41-19.73,45.33-38.87C324.4,368.32,371.8,331.88,421.07,298.07Z"/><path class="cls-3" d="M599.64,412a175.87,175.87,0,0,1,7-19.89c.45-1.09.86-2.2,1.33-3.28a161.79,161.79,0,0,1,11.16-21c13-20.08,32.28-38.09,56.6-42.38,14.33-2.38,28.49-8,39-18.29,20-19.91,23.26-49.47,35.28-73.92,9.85-22.76,29.38-41.31,53.33-48.37,23.14-7.69,48-2.51,70.1,6h0c-3.62-31.47-8.3-63-17.8-93.31C852.87,89.45,850,81,844.34,74.42c-4.16-5.08-11.5-4.24-17.33-5a299.22,299.22,0,0,0-82.25,16.38c-34,12-65.75,30.35-92.23,55q-3.27,3-6.4,6.24c-31.28,31.9-51.53,74.08-58.34,118.15-.06.39-.1.78-.16,1.16C580.24,315,585.92,364.94,599.64,412ZM640,183.93a82.24,82.24,0,0,1,19.23-6.22c1.25-.28,2.51-.5,3.79-.67a37.34,37.34,0,0,1,22.35,3.69,30.63,30.63,0,0,1,3.32,2c11.23,5.43,23.6,11.45,28.61,23.8,8.62,18.1,4.09,40-8,55.34-13.81,17.84-36.38,29.56-59.11,28.47a60,60,0,0,1-6.12-.57c-27.08-5-45.78-34.37-41.91-61,2.48-13.6,10.16-25.07,20.45-33.78l1.07-.86A78.36,78.36,0,0,1,640,183.93Z"/><path class="cls-3" d="M873.39,90.19a147.44,147.44,0,0,1,5.44,16.71,375.22,375.22,0,0,1,8.54,44.43c2.14,16,3.46,32.14,4.28,48.25h0C925.92,216.74,956.09,241,990.51,258c17.4,9.13,36.92,16,56.85,14,17.16-1.75,32.26-11.6,43.87-23.92h0c-10.47-43.74-34.72-82.87-62-118-46.59-38.14-106.47-57.43-166-61.2q2.58,4.48,4.87,9.11C870.05,81.92,871.78,86,873.39,90.19Z"/><path class="cls-2" d="M622.59,195c-10.29,8.71-18,20.18-20.45,33.78-3.87,26.63,14.83,56,41.91,61a60,60,0,0,0,6.12.57c22.73,1.09,45.3-10.63,59.11-28.47,12.13-15.37,16.66-37.24,8-55.34-5-12.35-17.37-18.37-28.61-23.8a30.5,30.5,0,0,0-3.31-2A37.34,37.34,0,0,0,663,177c-1.28.17-2.54.39-3.79.67A82.24,82.24,0,0,0,640,183.93a78.36,78.36,0,0,0-16.36,10.22Zm31.77.06a27.21,27.21,0,0,1,15.23-.25c4.91,2,8.11,6.6,12.72,9.13,4.41,1.36,10.21-.23,13.21,4.21,6.77,6.92,7.41,17.36,5.85,26.41a48.57,48.57,0,0,1-17.29,27.14,44.57,44.57,0,0,1-7.48,4.82c-12.7,6.25-28.21,5.43-40.64-1-11-5.78-16.53-19.41-13.61-31.32a57.58,57.58,0,0,1,15.47-28.65A44.86,44.86,0,0,1,654.36,195.07Z"/><path class="cls-4" d="M622.35,234.22c-2.92,11.91,2.63,25.54,13.61,31.32,12.43,6.42,27.94,7.24,40.64,1a44.57,44.57,0,0,0,7.48-4.82,48.62,48.62,0,0,0,17.29-27.14c1.56-9,.92-19.49-5.85-26.4-3-4.44-8.8-2.86-13.21-4.22-4.62-2.53-7.82-7.12-12.72-9.13a27.21,27.21,0,0,0-15.23.25,44.86,44.86,0,0,0-16.54,10.5A57.58,57.58,0,0,0,622.35,234.22Z"/><path class="cls-5" d="M1066.38,286.79c-19.37,6.57-40.69,4.11-59.56-2.93-54.52-19.41-96.45-63.62-152-80.76-21.87-7.26-47.11-4.31-65.61,9.85-12.66,8.8-20.28,21.84-26.07,35.8-3.48,8.37-6.29,17.08-9.14,25.41-7.59,23.39-19.91,47.63-42.92,59.09-17.33,10.24-39.79,7.64-55.34,21.37-22.49,19.05-35.29,47.39-41.28,75.75-.9,5.07-2.44,10.58-1.58,15.72a14.44,14.44,0,0,0,1.53,4.62C632.81,489.24,663,522,699.53,544c36.28,22.56,78.46,33.94,120.71,38.08a346.49,346.49,0,0,0,54.67-.62c63.57-7.39,128-33.05,169.92-83,19.64-27.55,36.35-57.73,46.47-90.13,5.2-20.09,5.1-41.06,7.73-61.57.62-19.44,1.39-39-.64-58.39h0c-.8-5.92-1.4-11.88-2-17.82,0-.33-.07-.67-.1-1h0C1087.11,276.47,1077.46,283.22,1066.38,286.79ZM1079,401c-15,32.65-37.93,60.67-60,88.74-1,1.35-2.11,2.65-3.2,3.94-8.35,9.75-18.49,17.79-27.31,27.1-.46.49-.94,1-1.4,1.47-.06.07-.14.13-.2.2-13,14.59-31.62,21.71-48.32,30.94a99.12,99.12,0,0,1-21.18,8.68c-14.65,4.34-29.16,10.69-44.68,10.56-19.68,1.52-39.72,2.33-59.31-.1-31.91-6.37-64.27-13.93-93.28-29.08-31-12.5-60.15-32-78.77-60.25C631,469.08,622.43,452,625.33,434c2.8-18.8,10-37.79,23.45-51.55h0c24.71-24.25,63.71-24.52,89-47.46a64.53,64.53,0,0,0,4.87-4.91c.94-1,1.79-2.08,2.66-3.14.47-.57,1-1.12,1.44-1.71.23-.3.43-.62.66-.93,17.36-23.08,20.29-53.53,33.71-78.82q1.46-2.74,3.09-5.4a44.7,44.7,0,0,1,3.84-5.34,47.94,47.94,0,0,1,4.64-4.82q1.26-1.12,2.58-2.16a44.88,44.88,0,0,1,3.82-2.65c1.08-.68,2.18-1.3,3.3-1.88,8.41-4.33,18.06-5.79,27.19-2.3,20.14,7,40.35,14.58,59,25,36.57,31.59,86.43,38.11,128.51,59.26,9.37,2.58,19,4.12,28.44,6.57,17,4.05,33.67-4.93,50.78-2.38C1097.9,340.84,1090.43,372,1079,401Z"/><path class="cls-2" d="M1045.53,311.78c-9.43-2.45-19.07-4-28.44-6.57C975,284.06,925.15,277.54,888.58,246c-18.62-10.44-38.83-18-59-25-9.13-3.49-18.78-2-27.19,2.3-1.12.58-2.22,1.2-3.3,1.88a44.88,44.88,0,0,0-3.82,2.65q-1.32,1-2.58,2.16a47.94,47.94,0,0,0-4.64,4.82,44.7,44.7,0,0,0-3.84,5.34q-1.63,2.65-3.09,5.4c-13.42,25.29-16.35,55.74-33.71,78.82-.23.31-.43.63-.66.93-.45.59-1,1.14-1.44,1.71-.87,1.06-1.72,2.12-2.66,3.14a62.73,62.73,0,0,1-4.87,4.91c-25.31,22.94-64.31,23.21-89,47.46h0C635.3,396.21,628.13,415.2,625.33,434c-2.9,18,5.68,35.08,16,49.21C660,511.43,689.13,531,720.1,543.47c29,15.14,61.36,22.71,93.27,29.08A235.92,235.92,0,0,1,843,570.47a185.29,185.29,0,0,1,29.64,2.18c15.52.12,30-6.22,44.68-10.56a98.91,98.91,0,0,0,21.18-8.68c16.7-9.23,35.36-16.36,48.32-30.94.06-.07.14-.13.2-.2.46-.5.94-1,1.4-1.47,8.82-9.31,19-17.35,27.31-27.1,1.09-1.29,2.17-2.59,3.2-3.94,22-28.07,45-56.09,60-88.74,11.48-29.06,19-60.18,17.36-91.62C1079.2,306.85,1062.54,315.83,1045.53,311.78Z"/><path class="cls-3" d="M468.87,335.79q5.76,7.89,11.6,15.72t11.83,15.54c15.87,20.53,31.34,41.51,49.57,60q5.07-1.08,10-2.46a150.69,150.69,0,0,0,19.49-6.87q4.76-2,9.36-4.45c-1.37-4.87-2.63-9.77-3.84-14.69-.48-2-.94-3.91-1.4-5.87q-1.47-6.45-2.77-12.94-3.37-17.08-5.22-34.4c-.23-2.21-.45-4.43-.64-6.64a318.62,318.62,0,0,1,.37-61.14q.48-4.56,1.1-9.1c-4.48,0-9,.05-13.47.06-31.46.06-63.1-.17-94.06,6-7.95,2-18.37,4-22.1,11.82a14.3,14.3,0,0,0-1.16,3.75c1.81,5.15,5.31,9.47,8.41,13.93C453.6,314.68,461.19,325.27,468.87,335.79Z"/><path class="cls-6" d="M1099,346.74c.33,2.16,1,6.47,1.32,8.65h0c3.74-22.22,1.61-45,1-67.4h0l-3,.35C1100.42,307.74,1099.65,327.3,1099,346.74Z"/><path class="cls-7" d="M1114.68,318.71a121.83,121.83,0,0,0,2.43,24.64c.92-16.42,1.34-32.93-.25-49.32h0A147.29,147.29,0,0,0,1114.68,318.71Z"/><path class="cls-3" d="M491.78,397.15c-24.84-32-52.76-62.38-70.71-99.08-49.27,33.81-96.67,70.25-142.52,108.54q-22.92,19.14-45.33,38.87-12.21,11-24.29,22.17c-24.1,22.41-47.42,45.65-68.27,71.13-11.13,14.71-24,29.88-26.41,48.87h0c-.37,17,7.74,32.63,16.27,46.79a273.25,273.25,0,0,0,55.69,63.33c5.13,3.17,10.58,9.59,17.16,7.51,18.22-7.38,32.06-22.09,46.49-35,9.32-7.44,14.16-19,24.84-24.82C341.23,588.4,411.42,535.83,480.6,482c16.59-13.1,34-25.37,48.32-41.09h0C514.77,427.92,503.71,412.13,491.78,397.15Z"/><path class="cls-3" d="M619.87,683.51c1.61,12.47,11.21,22.32,22.64,26.7,4.24,1.75,8.53,3.35,12.84,4.9,6.15,2.21,12.35,4.3,18.56,6.39,10.69,3.59,21.38,7.22,31.75,11.67h0c20.88-20.85,43.79-40.22,60.2-65a127.79,127.79,0,0,0,21.3-71.7C715,584,646.13,542.7,608.52,478.8c-2.46-6-8.73-7.81-13.39-11.46a108.1,108.1,0,0,0-8.83-36.27h0c-6.74,3.37-13.48,7-20.46,9.9a76,76,0,0,1-13.63,4.39q-2.6.54-5.26.83c-5.21,9.43-12.68,17.07-20.81,24-4.55,3.87-9.3,7.51-14,11.1-77,60.67-156.08,118.79-230.14,183.11,9.42,41.13,38.26,74.53,70.69,100,39.25,30.32,84.8,52.32,132.43,65.93h0c-31-22.12-63.3-48.51-74-86.66-8.48-41.14-11-84.26-2-125.52,7.26-33.77,25.46-66.59,55-85.66a112.66,112.66,0,0,1,80.71-17c37.11,5.93,70.89,30.62,86.6,64.94-5,13.69-6.54,28.29-8.45,42.65C620.52,643.12,617.47,663.37,619.87,683.51Z"/><path class="cls-4" d="M611.42,589.7c-.15-3.54.54-7.41-1.56-10.51a97.47,97.47,0,0,0-26-28A92.46,92.46,0,0,0,549,535.51a95.19,95.19,0,0,0-45.39.08,92,92,0,0,0-37.45,18.76,95.39,95.39,0,0,0-15.57,16.21c-13.55,17.79-21.3,39.82-25.67,61.67h0c27.89-24,61.73-40.68,97.41-49.28C551.68,575.3,583.94,575.65,611.42,589.7Z"/><path class="cls-7" d="M872.68,572.65A185.29,185.29,0,0,0,843,570.47a235.92,235.92,0,0,0-29.67,2.08h0C833,575,853,574.16,872.68,572.65Z"/><path class="cls-8" d="M820.24,582.07c-1.64.5-4.91,1.44-6.55,1.91,10.54.93,21.38,2,32.13,2.06s21.44-1,31.67-4.24l-2.58-.35h0A346.49,346.49,0,0,1,820.24,582.07Z"/><path class="cls-3" d="M563.19,589.18q-3.29,0-6.55.31c-38.15,2.7-74.65,17.4-106.49,38.13-9.67,6.72-19.52,13.61-27.12,22.71-.75,6.78-1.14,13.57-1.21,20.38s.15,13.61.62,20.41a388.66,388.66,0,0,0,5.22,40.54,60.73,60.73,0,0,0,2.87,11.12,74.28,74.28,0,0,0,3,7c1.37,2.88,2.88,5.71,4.54,8.46q1.49,2.46,3.11,4.85c2.14,3.19,4.42,6.29,6.75,9.3,1.84-32.56,26.63-58.47,54-73.27a121.28,121.28,0,0,1,12-5.82c28.67-12,62.15-13.26,90.63,0-7.63-30.7-2.08-62.46,2.61-93.13C593.91,592.28,578.5,589,563.19,589.18Z"/><path class="cls-4" d="M790.21,664.44c-8.51,15-19,28.57-30.55,41.31s-24,24.66-36.47,36.4h0c.78.57,1.55,1.19,2.32,1.78,15.56,11.74,30,25.78,39.12,43.13,1.36,2.6,2.6,5.27,3.71,8,1.47,2.72,1.91,6.29,4.64,8.23,9.67,2,19.49,3.15,29.16,5.3q-.39-6.92-.34-13.83a194.43,194.43,0,0,1,4.6-41.14c5.58-25.39,12.7-51.2,27.7-72.8-13.93-6.12-28-11.85-42.18-17.33Z"/><path class="cls-3" d="M822.6,736.89q-1,3.89-2,7.79c-4.66,20.62-8.54,41.8-6.89,63,.07.95.09,1.89.19,2.84,27.15,3.6,56.64,5.83,81.53-7.93,14.78-8.73,30.2-21,33.65-38.8a32.52,32.52,0,0,0,.27-3.37c.43-16.58-12.66-29.79-24.47-40-18.45-14.42-39.23-25.73-60.58-35.2a123.59,123.59,0,0,0-9.15,16.09A199,199,0,0,0,822.6,736.89Z"/><path class="cls-3" d="M620.66,780.56c6.87-17.14,15.5-34.49,30.35-46.1h0c-8.94-2.62-18-5.84-25.75-11.16a46.45,46.45,0,0,1-7.18-6.07c-2.87-2.87-5-6.47-8.18-9h0c-9.82-3.6-19.06-8.7-29.3-11.08-16.34-3.82-33.49-2.42-49.47,2.39q-3.42,1-6.77,2.27c-2.92,1.09-5.83,2.28-8.7,3.58-20.07,9.07-38.32,23.18-49.2,42.53-6.69,11.78-9.6,27.11-3.4,39.63a284.93,284.93,0,0,0,47,34.47c.35.21.72.4,1.07.61A379.94,379.94,0,0,0,566.2,849c10.9,4.23,22,8.06,33.06,11.48C604.4,833.4,610.79,806.4,620.66,780.56Z"/><path class="cls-3" d="M534.28,857.15c-17.85-.25-35.43-3.72-52.62-8.29-48.52-13.56-95.08-35.15-135.2-65.82-31-23.14-57.25-52.92-74.07-87.9-2.42,21.58-4.26,43.23-5.95,64.9-1.13,14.44-2.2,28.88-3.29,43.32,0,.32,0,.64,0,.95-.83,19.3-3.68,38.57-2.73,57.92h0c-1,7.29-2.31,14.53-3,21.87h0A408.29,408.29,0,0,1,406,940.78c2.14-22.22,2.8-44.53,3.57-66.83-.1-9.54,14.46-11.38,17.93-3,.18,2,.27,4,.31,6,.1,6-.28,12-.19,17.94h0c18.85-2.11,37.84.07,56.46,3.17,26.83,5,53.59,12.67,77.24,26.58.08-.82.18-1.64.27-2.46,1.71-16.53,4.06-33,5.86-49.5.1-.94.22-1.87.32-2.81h0C556.32,866.32,545.68,860.57,534.28,857.15Z"/><path class="cls-3" d="M736.38,846.93c5-7.31,13.57-11.6,17.61-19.66,4.26-9,1-19.17-2.76-27.7-9.74-19.59-24.42-37.83-44.75-47-12.94-6.82-27.26-13.35-42.23-11.94-.33,0-.64,0-1,0a30.45,30.45,0,0,0-9.35,5.78c-6.75,6-11.19,14.68-15.23,22.94-.81,1.65-1.61,3.29-2.4,4.88-12.72,28.37-19.89,58.77-26.06,89.12,19.23,4.46,39.2,8.27,59.07,8.47a131.59,131.59,0,0,0,35.47-4.21C717.19,864.36,728.82,857.49,736.38,846.93Z"/><path class="cls-4" d="M235.67,953h0c1.19-28.89,2.63-57.77,3-86.68-13-1.27-25.51,4.43-34.51,13.59-17.65,17.82-29.06,43.43-25.39,68.8C197.39,952.64,216.63,955.34,235.67,953Z"/><path class="cls-3" d="M378.89,939.09c-37.71-21.64-79.35-35.63-121.84-44.33-1.62,20.85-3.5,41.68-5.36,62.51,1.76,19,10.12,37.27,22.69,51.62a133.69,133.69,0,0,0,36.71,29.24,149.54,149.54,0,0,0,21.55,9.63,152.79,152.79,0,0,0,22.74,6.14h0l1.81-.65c25.59-26.85,41.36-62.28,46.94-98.78C396.86,947.75,387.22,944.3,378.89,939.09Z"/><path class="cls-4" d="M501.13,913a236.56,236.56,0,0,0-46.1-7.7,158.38,158.38,0,0,0-28,.8c-.18,1.63-.38,3.31-.5,5-.06.83-.1,1.68-.12,2.51-.06,4.19.62,8.3,3.47,11.72,18.47,28,37.47,56.19,61.89,79.44,8.23,7.74,17.38,14.93,28.12,18.82,4,2.19,7-1.91,9.77-4.11,16.46-15.13,21.6-38.06,25.86-59.09.93-6.38,2.93-12.78,2.83-19.24a25.94,25.94,0,0,0-.18-2.78C541.64,925.28,521.24,918.42,501.13,913Z"/><path class="cls-9" d="M474.82,1004.35C455.72,984.68,440,961.51,424.59,939a285.15,285.15,0,0,1-5.31,34.11,201.83,201.83,0,0,1-19.71,53.84h0c35.7,4.71,72.18,11.16,108.08,4.64h0A181.47,181.47,0,0,1,474.82,1004.35Z"/><path class="cls-4" d="M202.12,1077.7c-13.24-3-26.9-4.61-39.79-9-6.2-4.12-2.31-11-2-16.74-12.13-27.74-5.38-58.76,0-87.25-16.91-.17-36.25-2-50.11,9.77-6.86,5.65-9.2,13.82-9.82,22.28a118.06,118.06,0,0,0,.15,15.08c1.61,23.78,4,47.71,11,70.6,5.13,16.71,12.28,34.54,27.75,44.23a34.71,34.71,0,0,0,20.41,4.16,49.79,49.79,0,0,0,25.13-9.86C196.52,1109.88,199.87,1093.05,202.12,1077.7Z"/><path class="cls-3" d="M308,1049.41c-31.14-16-57.62-43.89-66-78.6-13.44,1.2-26.82.08-40.16-1.59-2.17-.27-4.33-.54-6.49-.83-4.89-.67-9.77-1.36-14.65-2-2.91-.39-5.81-.76-8.72-1.1-3.44,18.63-7,37.48-6.69,56.52v.13h0c1.06,10.76,2.11,23.16,10.41,31.07,8.73,3,18,4.12,27.05,5.83,2.53-5.06,7.34-10.81,13.67-7.89,5.2,1.27,5.2,7.32,6.86,11.43,38.61,4.69,78.55,10.42,116.88.92h0C329.6,1058.26,318.16,1055.21,308,1049.41Z"/></svg>